# xmcd
#
# Track frame offsets: 
#        150
#        17583
#        35629
#        50046
#        65883
#        84270
#        99052
#        114760
#        130222
#        143994
#        157902
#        171557
#        191253
#
# Disc length: 2733 seconds
#
# Revision: 0
# Processed by: cddbd v1.5.2PL0 Copyright (c) Steve Scherf et al.
# Submitted via: ExactAudioCopyFreeDBPlugin 1.0
#
DISCID=a70aab0d
DTITLE=Jessie James Decker - Southern Girl City Lights (Target Deluxe 
DTITLE=Edition)
DYEAR=2017
DGENRE=Country
TTITLE0=Southern Girl City Lights
TTITLE1=Fall In Love
TTITLE2=Hold A Candle
TTITLE3=Almost Over You ft. Randy Houser
TTITLE4=All Filled Up
TTITLE5=Open All Night
TTITLE6=Another Dumb Love Song
TTITLE7=Do You
TTITLE8=Hungry
TTITLE9=Pretty Girl
TTITLE10=Use Your Words
TTITLE11=Girl Like Me
TTITLE12=Flip My Hair
EXTD=
EXTT0=
EXTT1=
EXTT2=
EXTT3=
EXTT4=
EXTT5=
EXTT6=
EXTT7=
EXTT8=
EXTT9=
EXTT10=
EXTT11=
EXTT12=
PLAYORDER=
